<svg xmlns="http://www.w3.org/2000/svg" viewBox="0 0 820 200" font-family="'SF Mono','Fira Code',monospace" fill="none">
  <defs><marker id="arr" markerWidth="10" markerHeight="10" refX="8" refY="3" orient="auto"><path d="M0,0 L0,6 L8,3 z" fill="#78909c"/></marker></defs>
  <rect x="10" y="60" width="130" height="70" rx="8" fill="#e8f5e9" stroke="#66bb6a" stroke-width="2"/>
  <text x="75" y="88" text-anchor="middle" font-size="13" font-weight="bold" fill="#2e7d32">raw/</text>
  <text x="75" y="108" text-anchor="middle" font-size="10" fill="#558b2f">日期 + 来源结构</text>
  <text x="75" y="122" text-anchor="middle" font-size="10" fill="#558b2f">人类收集 / 工具处理</text>
  <path d="M140,95 L180,95" stroke="#78909c" stroke-width="2" marker-end="url(#arr)"/>
  <text x="160" y="85" text-anchor="middle" font-size="9" fill="#78909c">3-level</text>
  <text x="160" y="75" text-anchor="middle" font-size="9" fill="#78909c">routing</text>
  <rect x="180" y="60" width="130" height="70" rx="8" fill="#fff8e1" stroke="#ffc107" stroke-width="2"/>
  <text x="245" y="88" text-anchor="middle" font-size="13" font-weight="bold" fill="#5d4037">drafts/</text>
  <text x="245" y="108" text-anchor="middle" font-size="10" fill="#795548">A/B/C 分级</text>
  <text x="245" y="122" text-anchor="middle" font-size="10" fill="#795548">AI 蒸馏候选</text>
  <path d="M310,95 L350,95" stroke="#78909c" stroke-width="2" marker-end="url(#arr)"/>
  <text x="330" y="85" text-anchor="middle" font-size="9" fill="#78909c">人工</text>
  <text x="330" y="75" text-anchor="middle" font-size="9" fill="#78909c">审查</text>
  <rect x="350" y="60" width="140" height="70" rx="8" fill="#e3f2fd" stroke="#42a5f5" stroke-width="2"/>
  <text x="420" y="88" text-anchor="middle" font-size="13" font-weight="bold" fill="#1565c0">wiki/</text>
  <text x="420" y="108" text-anchor="middle" font-size="10" fill="#1976d2">22域 × 3类型</text>
  <text x="420" y="122" text-anchor="middle" font-size="10" fill="#1976d2">衰减 + 4关系</text>
  <path d="M490,95 L530,95" stroke="#78909c" stroke-width="2" marker-end="url(#arr)"/>
  <text x="510" y="85" text-anchor="middle" font-size="9" fill="#78909c">6因子</text>
  <text x="510" y="75" text-anchor="middle" font-size="9" fill="#78909c">召回</text>
  <rect x="530" y="60" width="140" height="70" rx="8" fill="#fce4ec" stroke="#ec407a" stroke-width="2"/>
  <text x="600" y="88" text-anchor="middle" font-size="13" font-weight="bold" fill="#ad1457">Agent 上下文</text>
  <text x="600" y="108" text-anchor="middle" font-size="10" fill="#c2185b">来源标签注入</text>
  <text x="600" y="122" text-anchor="middle" font-size="10" fill="#c2185b">带引用回答</text>
  <text x="160" y="155" text-anchor="middle" font-size="9" fill="#999">指纹去重</text>
  <text x="330" y="155" text-anchor="middle" font-size="9" fill="#999">质量门</text>
  <text x="510" y="155" text-anchor="middle" font-size="9" fill="#999">记忆曲线</text>
  <line x1="100" y1="145" x2="220" y2="145" stroke="#ddd" stroke-width="1" stroke-dasharray="3 3"/>
  <line x1="270" y1="145" x2="390" y2="145" stroke="#ddd" stroke-width="1" stroke-dasharray="3 3"/>
  <line x1="440" y1="145" x2="560" y2="145" stroke="#ddd" stroke-width="1" stroke-dasharray="3 3"/>
</svg>
